<?xml version="1.0" encoding="utf-8"?>
<!-- Generator: Adobe Illustrator 16.0.0, SVG Export Plug-In . SVG Version: 6.00 Build 0)  -->
<!DOCTYPE svg PUBLIC "-//W3C//DTD SVG 1.1//EN" "http://www.w3.org/Graphics/SVG/1.1/DTD/svg11.dtd">
<svg version="1.1" id="Layer_1" xmlns="http://www.w3.org/2000/svg" xmlns:xlink="http://www.w3.org/1999/xlink" x="0px" y="0px"
	 width="316.182px" height="138.589px" viewBox="0 0 316.182 138.589" enable-background="new 0 0 316.182 138.589"
	 xml:space="preserve">
<g>
	<defs>
		<rect id="SVGID_1_" x="7.062" y="4.385" width="299.293" height="128.357"/>
	</defs>
	<clipPath id="SVGID_2_">
		<use xlink:href="#SVGID_1_"  overflow="visible"/>
	</clipPath>
	<path clip-path="url(#SVGID_2_)" fill="#DB2E27" d="M293.465,95.266c1.419,0.932,3.001,1.397,4.745,1.397
		c2.267,0,4.189-0.769,5.771-2.306c1.582-1.535,2.373-3.346,2.373-5.43c0-1.445-0.462-2.884-1.386-4.315
		c-0.926-1.433-2.632-3.067-5.117-4.902c-2.097-1.55-3.334-2.507-3.711-2.872c-0.691-0.69-1.166-1.328-1.426-1.914
		c-0.262-0.586-0.392-1.191-0.392-1.816c0-1.027,0.368-1.895,1.104-2.598c0.734-0.703,1.682-1.054,2.842-1.054
		c0.897,0,1.728,0.228,2.49,0.683c0.761,0.456,1.682,1.4,2.763,2.832l2.344-1.776c-1.314-1.798-2.562-3.03-3.74-3.701
		s-2.444-1.006-3.799-1.006c-1.275,0-2.458,0.296-3.545,0.889c-1.087,0.592-1.93,1.403-2.529,2.431
		c-0.599,1.029-0.898,2.168-0.898,3.418c0,1.576,0.508,3.041,1.523,4.396c0.587,0.807,2.077,2.116,4.474,3.925
		c2.382,1.797,4.022,3.334,4.921,4.61c0.651,0.925,0.977,1.867,0.977,2.832c0,0.846-0.222,1.646-0.664,2.401
		c-0.442,0.756-1.087,1.358-1.934,1.808c-0.846,0.448-1.751,0.674-2.715,0.674c-2.252,0-4.238-1.582-5.957-4.746l-2.441,1.464
		C290.737,92.777,292.044,94.335,293.465,95.266 M278.887,70.022V95.94h2.93V70.022h6.406V67.21h-15.742v2.812H278.887z
		 M253.079,95.94h16.348v-2.813H255.95V81.838h13.477v-2.812H255.95v-9.005h13.594V67.21h-16.465V95.94z M238.389,70.022
		c1.939,0,3.337,0.169,4.189,0.508c0.853,0.338,1.539,0.905,2.061,1.706c0.521,0.799,0.78,1.679,0.78,2.641
		c0,0.987-0.26,1.881-0.78,2.68c-0.521,0.799-1.237,1.377-2.148,1.735c-0.912,0.356-2.351,0.536-4.316,0.536l-4.863-0.06v-9.746
		H238.389z M230.44,95.94h2.871V82.582h2.051c3.567,0,6.002-0.157,7.304-0.469c1.784-0.431,3.185-1.267,4.2-2.511
		c1.016-1.242,1.523-2.821,1.523-4.735c0-1.901-0.521-3.48-1.563-4.737c-1.042-1.256-2.383-2.086-4.023-2.49
		c-1.146-0.286-3.359-0.429-6.641-0.429h-5.723V95.94z M203.47,70.022c1.969,0,3.378,0.169,4.226,0.509
		c0.848,0.339,1.532,0.901,2.054,1.688c0.521,0.788,0.782,1.664,0.782,2.627c0,0.99-0.257,1.885-0.771,2.687
		c-0.516,0.801-1.233,1.384-2.152,1.748c-0.92,0.364-2.338,0.547-4.255,0.547l-4.95-0.039v-9.767H203.47z M195.532,95.94h2.871V82.6
		h1.624l10.332,13.34h3.552L203.579,82.6c2.409-0.013,4.297-0.321,5.664-0.929c1.368-0.606,2.419-1.502,3.155-2.689
		c0.735-1.186,1.103-2.561,1.103-4.126c0-1.877-0.533-3.458-1.601-4.741c-1.068-1.285-2.455-2.122-4.161-2.514
		c-1.132-0.261-3.294-0.391-6.483-0.391h-5.724V95.94z M180.402,70.942c1.93,1.107,3.426,2.583,4.489,4.428
		c1.063,1.844,1.595,3.905,1.595,6.186c0,2.294-0.531,4.379-1.595,6.255c-1.063,1.877-2.543,3.356-4.44,4.438
		c-1.898,1.082-3.962,1.623-6.191,1.623c-3.34,0-6.192-1.176-8.56-3.528c-2.366-2.352-3.55-5.236-3.55-8.65
		c0-2.307,0.534-4.397,1.604-6.273c1.069-1.877,2.557-3.369,4.461-4.477c1.903-1.107,3.918-1.661,6.045-1.661
		C176.423,69.281,178.47,69.834,180.402,70.942 M166.647,68.49c-2.308,1.335-4.127,3.18-5.463,5.537
		c-1.335,2.356-2.003,4.914-2.003,7.676c0,4.14,1.466,7.669,4.396,10.586c2.932,2.917,6.528,4.375,10.789,4.375
		c4.208,0,7.775-1.465,10.7-4.396c2.925-2.93,4.387-6.497,4.387-10.703c0-4.244-1.466-7.818-4.396-10.723
		c-2.933-2.903-6.573-4.354-10.925-4.354C171.448,66.488,168.953,67.155,166.647,68.49 M140.664,95.94h2.871V81.838h11.524v-2.812
		h-11.524v-9.005h11.524V67.21h-14.395V95.94z"/>
	<path clip-path="url(#SVGID_2_)" fill="#DB2E27" d="M252.723,50.266c1.419,0.932,3.001,1.397,4.746,1.397
		c2.267,0,4.19-0.769,5.772-2.306c1.582-1.535,2.373-3.346,2.373-5.43c0-1.445-0.462-2.884-1.388-4.315
		c-0.924-1.433-2.63-3.067-5.116-4.902c-2.097-1.55-3.333-2.507-3.711-2.872c-0.69-0.69-1.165-1.328-1.427-1.914
		c-0.26-0.586-0.39-1.191-0.39-1.816c0-1.027,0.367-1.895,1.103-2.598c0.736-0.703,1.684-1.054,2.843-1.054
		c0.898,0,1.729,0.228,2.489,0.683c0.763,0.456,1.684,1.4,2.765,2.832l2.344-1.776c-1.316-1.798-2.563-3.03-3.741-3.701
		c-1.178-0.671-2.444-1.006-3.798-1.006c-1.277,0-2.458,0.296-3.545,0.889c-1.088,0.592-1.931,1.403-2.53,2.431
		c-0.599,1.029-0.897,2.168-0.897,3.418c0,1.576,0.508,3.041,1.522,4.396c0.586,0.807,2.077,2.116,4.474,3.925
		c2.383,1.797,4.023,3.334,4.922,4.61c0.65,0.925,0.977,1.867,0.977,2.832c0,0.846-0.222,1.646-0.665,2.401
		c-0.441,0.756-1.087,1.358-1.933,1.808c-0.848,0.448-1.752,0.674-2.715,0.674c-2.253,0-4.238-1.582-5.957-4.746l-2.441,1.464
		C249.996,47.777,251.304,49.335,252.723,50.266 M235.015,25.022c1.97,0,3.378,0.169,4.227,0.509
		c0.847,0.339,1.531,0.901,2.054,1.688c0.521,0.788,0.782,1.664,0.782,2.627c0,0.99-0.257,1.885-0.772,2.687
		c-0.516,0.801-1.232,1.384-2.152,1.748c-0.919,0.364-2.338,0.547-4.255,0.547l-4.949-0.039v-9.767H235.015z M227.078,50.94h2.871
		V37.6h1.624l10.332,13.34h3.552L235.125,37.6c2.409-0.013,4.297-0.321,5.664-0.929c1.367-0.606,2.419-1.502,3.154-2.689
		c0.735-1.186,1.104-2.561,1.104-4.126c0-1.877-0.534-3.458-1.602-4.741c-1.067-1.285-2.454-2.122-4.16-2.514
		c-1.133-0.261-3.294-0.391-6.484-0.391h-5.723V50.94z M204.204,50.94h16.348v-2.813h-13.477V36.838h13.477v-2.812h-13.477v-9.005
		h13.594V22.21h-16.465V50.94z M178.742,50.94V29.185l18.966,21.755h0.645V22.21h-2.833v22.022L176.398,22.21h-0.625V50.94H178.742z
		 M163.713,25.022V50.94h2.931V25.022h6.405V22.21h-15.741v2.812H163.713z M145.56,25.022c1.969,0,3.378,0.169,4.226,0.509
		c0.848,0.339,1.532,0.901,2.054,1.688c0.522,0.788,0.782,1.664,0.782,2.627c0,0.99-0.257,1.885-0.772,2.687
		c-0.515,0.801-1.233,1.384-2.152,1.748c-0.92,0.364-2.338,0.547-4.255,0.547l-4.949-0.039v-9.767H145.56z M137.622,50.94h2.872
		V37.6h1.623l10.332,13.34H156L145.668,37.6c2.409-0.013,4.297-0.321,5.664-0.929c1.368-0.606,2.419-1.502,3.155-2.689
		c0.735-1.186,1.103-2.561,1.103-4.126c0-1.877-0.534-3.458-1.601-4.741c-1.068-1.285-2.455-2.122-4.16-2.514
		c-1.133-0.261-3.295-0.391-6.485-0.391h-5.723V50.94z M125.834,38.713h-9.822l4.923-10.399L125.834,38.713z M120.595,22.21
		L107.021,50.94h3.203l4.476-9.452h12.377l4.519,9.452h3.101L121.298,22.21H120.595z M99.093,25.022c1.94,0,3.337,0.169,4.19,0.508
		c0.852,0.338,1.539,0.905,2.06,1.706c0.521,0.799,0.781,1.679,0.781,2.641c0,0.987-0.26,1.881-0.781,2.68s-1.237,1.377-2.148,1.735
		c-0.912,0.356-2.351,0.536-4.317,0.536l-4.863-0.06v-9.746H99.093z M91.145,50.94h2.871V37.582h2.051
		c3.567,0,6.002-0.157,7.305-0.469c1.783-0.431,3.183-1.267,4.199-2.511c1.015-1.242,1.523-2.821,1.523-4.735
		c0-1.901-0.521-3.48-1.562-4.737c-1.042-1.256-2.383-2.086-4.024-2.49c-1.146-0.286-3.359-0.429-6.64-0.429h-5.723V50.94z"/>
	<path clip-path="url(#SVGID_2_)" fill="#C1C0BE" d="M107.473,112.636c3.917,2.173,9.921-1.173,13.41-7.474
		c3.49-6.302,3.143-13.17-0.774-15.344c-3.916-2.173-9.92,1.174-13.41,7.475C103.209,103.594,103.556,110.463,107.473,112.636"/>
	<path clip-path="url(#SVGID_2_)" fill="#C1C0BE" d="M99.377,96.484c4.181,1.606,9.661-2.544,12.24-9.269
		c2.58-6.726,1.282-13.48-2.899-15.087c-4.181-1.606-9.661,2.544-12.241,9.27C93.898,88.124,95.196,94.878,99.377,96.484"/>
	<path clip-path="url(#SVGID_2_)" fill="#C1C0BE" d="M83.356,93.147c4.461,0.391,8.586-5.111,9.213-12.287
		c0.628-7.177-2.48-13.312-6.941-13.702s-8.586,5.11-9.214,12.287C75.787,86.622,78.895,92.755,83.356,93.147"/>
	<path clip-path="url(#SVGID_2_)" fill="#C1C0BE" d="M70.496,102.758c4.396-0.854,6.846-7.28,5.473-14.353
		c-1.374-7.072-6.05-12.111-10.446-11.256c-4.396,0.854-6.847,7.281-5.473,14.353C61.423,98.575,66.1,103.614,70.496,102.758"/>
	<path clip-path="url(#SVGID_2_)" fill="#C1C0BE" d="M64.438,112.082c6.082-8.078,8.724-5.41,13.77-11.458
		c7.386-10.464,18.028-8.633,20.263,2.83c2.234,11.463,7.181,9.659,9.95,17.282c1.438,3.961-3.83,19.751-17.61,7.321
		c-7.391-6.667-10.325-4.562-17.03-1.502C68.964,128.754,58.356,120.16,64.438,112.082"/>
	<path clip-path="url(#SVGID_2_)" fill="#CECAC5" d="M61.749,42.462c4.432,0.633,8.819-4.602,9.799-11.69
		c0.98-7.089-1.818-13.349-6.25-13.981c-4.432-0.634-8.819,4.601-9.799,11.689S57.317,41.83,61.749,42.462"/>
	<path clip-path="url(#SVGID_2_)" fill="#CECAC5" d="M48.387,30.32c4.474,0.013,8.083-5.782,8.062-12.944
		c-0.021-7.161-3.664-12.978-8.137-12.99c-4.474-0.014-8.084,5.782-8.063,12.943C40.27,24.491,43.913,30.307,48.387,30.32"/>
	<path clip-path="url(#SVGID_2_)" fill="#CECAC5" d="M32.259,32.888c4.297-1.216,6.157-7.787,4.155-14.677
		S29.306,6.722,25.009,7.937c-4.296,1.217-6.157,7.787-4.155,14.678C22.856,29.504,27.962,34.104,32.259,32.888"/>
	<path clip-path="url(#SVGID_2_)" fill="#CECAC5" d="M23.743,46.371c3.787-2.351,3.754-9.188-0.074-15.272
		c-3.828-6.085-10.001-9.112-13.788-6.762c-3.787,2.35-3.754,9.188,0.074,15.272C13.783,45.693,19.956,48.72,23.743,46.371"/>
	<path clip-path="url(#SVGID_2_)" fill="#CECAC5" d="M21.459,57.175c2.755-9.657,6.177-8.112,8.698-15.519
		c3.11-12.336,13.684-14.4,19.897-4.541c6.212,9.859,10.171,6.433,15.497,12.536c2.768,3.171,3.551,19.707-13.766,13.035
		c-9.288-3.579-11.263-0.585-16.406,4.631C31.684,71.066,18.704,66.833,21.459,57.175"/>
</g>
</svg>
