<?xml version="1.0" encoding="utf-8"?>
<!-- Generator: Adobe Illustrator 16.0.0, SVG Export Plug-In . SVG Version: 6.00 Build 0)  -->
<!DOCTYPE svg PUBLIC "-//W3C//DTD SVG 1.1//EN" "http://www.w3.org/Graphics/SVG/1.1/DTD/svg11.dtd">
<svg version="1.1" id="Layer_1" xmlns="http://www.w3.org/2000/svg" xmlns:xlink="http://www.w3.org/1999/xlink" x="0px" y="0px"
	 width="310.66px" height="139.004px" viewBox="0 0 310.66 139.004" enable-background="new 0 0 310.66 139.004"
	 xml:space="preserve">
<g>
	<path fill="#DB2E27" d="M90.083,24.7h5.723c3.281,0,5.495,0.144,6.641,0.43c1.641,0.404,2.981,1.234,4.023,2.49
		c1.042,1.257,1.563,2.835,1.563,4.736c0,1.914-0.508,3.493-1.523,4.736c-1.016,1.244-2.416,2.08-4.199,2.51
		c-1.302,0.313-3.737,0.469-7.305,0.469h-2.051V53.43h-2.871V24.7z M92.954,27.512v9.746l4.863,0.059
		c1.966,0,3.405-0.179,4.316-0.536c0.911-0.357,1.627-0.936,2.148-1.735c0.521-0.799,0.781-1.692,0.781-2.68
		c0-0.961-0.261-1.842-0.781-2.641c-0.521-0.799-1.208-1.368-2.061-1.706c-0.853-0.338-2.25-0.507-4.189-0.507H92.954z"/>
	<path fill="#DB2E27" d="M120.272,24.7l13.398,28.73h-3.101l-4.519-9.453h-12.377l-4.476,9.453h-3.203l13.574-28.73H120.272z
		 M119.909,30.804l-4.923,10.4h9.822L119.909,30.804z"/>
	<path fill="#DB2E27" d="M136.6,24.7h5.723c3.19,0,5.352,0.13,6.484,0.391c1.706,0.392,3.092,1.229,4.16,2.513
		c1.067,1.284,1.602,2.865,1.602,4.743c0,1.564-0.368,2.94-1.104,4.126c-0.736,1.187-1.787,2.083-3.154,2.688
		c-1.367,0.606-3.255,0.917-5.664,0.929l10.332,13.34h-3.552l-10.333-13.34h-1.623v13.34H136.6V24.7z M139.471,27.512v9.766
		l4.949,0.04c1.917,0,3.335-0.183,4.255-0.547c0.919-0.365,1.637-0.947,2.152-1.748c0.516-0.801,0.773-1.696,0.773-2.686
		c0-0.963-0.261-1.839-0.783-2.627c-0.521-0.788-1.206-1.351-2.054-1.689c-0.848-0.338-2.257-0.508-4.226-0.508H139.471z"/>
	<path fill="#DB2E27" d="M156.31,27.512V24.7h15.742v2.813h-6.406V53.43h-2.93V27.512H156.31z"/>
	<path fill="#DB2E27" d="M174.812,53.43V24.7h0.625l19.122,22.023V24.7h2.832v28.73h-0.645l-18.965-21.755V53.43H174.812z"/>
	<path fill="#DB2E27" d="M203.242,24.7h16.465v2.813h-13.594v9.004h13.477v2.813h-13.477v11.289h13.477v2.813h-16.348V24.7z"/>
	<path fill="#DB2E27" d="M226.104,24.7h5.723c3.19,0,5.352,0.13,6.484,0.391c1.706,0.392,3.093,1.229,4.16,2.513
		s1.602,2.865,1.602,4.743c0,1.564-0.368,2.94-1.104,4.126s-1.787,2.083-3.154,2.688c-1.367,0.606-3.255,0.917-5.664,0.929
		l10.332,13.34h-3.552l-10.333-13.34h-1.623v13.34h-2.871V24.7z M228.975,27.512v9.766l4.949,0.04c1.917,0,3.335-0.183,4.255-0.547
		c0.92-0.365,1.637-0.947,2.152-1.748c0.515-0.801,0.772-1.696,0.772-2.686c0-0.963-0.261-1.839-0.782-2.627
		c-0.522-0.788-1.207-1.351-2.055-1.689c-0.848-0.338-2.256-0.508-4.226-0.508H228.975z"/>
	<path fill="#DB2E27" d="M247.816,48.079l2.441-1.465c1.719,3.164,3.704,4.746,5.957,4.746c0.964,0,1.868-0.225,2.715-0.674
		s1.491-1.051,1.934-1.807c0.442-0.755,0.664-1.556,0.664-2.402c0-0.963-0.325-1.907-0.977-2.832
		c-0.898-1.276-2.539-2.813-4.922-4.609c-2.396-1.81-3.887-3.118-4.473-3.926c-1.016-1.354-1.523-2.819-1.523-4.395
		c0-1.25,0.3-2.389,0.898-3.418c0.599-1.028,1.442-1.839,2.529-2.432c1.087-0.592,2.269-0.889,3.545-0.889
		c1.354,0,2.62,0.335,3.799,1.006c1.179,0.671,2.425,1.904,3.74,3.701l-2.344,1.777c-1.081-1.432-2.002-2.376-2.764-2.832
		c-0.762-0.456-1.592-0.684-2.49-0.684c-1.159,0-2.106,0.352-2.842,1.055s-1.104,1.569-1.104,2.598c0,0.625,0.13,1.23,0.391,1.816
		s0.735,1.224,1.426,1.914c0.378,0.365,1.614,1.322,3.711,2.871c2.487,1.836,4.192,3.47,5.117,4.902
		c0.925,1.433,1.387,2.871,1.387,4.316c0,2.083-0.791,3.894-2.373,5.43c-1.582,1.537-3.506,2.305-5.771,2.305
		c-1.745,0-3.327-0.466-4.746-1.396S249.015,50.266,247.816,48.079z"/>
</g>
<g>
	<path fill="#DB2E27" d="M139.582,69.7h14.395v2.813h-11.523v9.003h11.523v2.813h-11.523V98.43h-2.871V69.7z"/>
	<path fill="#DB2E27" d="M173.018,68.977c4.352,0,7.994,1.452,10.925,4.355c2.931,2.904,4.396,6.478,4.396,10.722
		c0,4.207-1.463,7.773-4.387,10.703c-2.926,2.93-6.492,4.395-10.701,4.395c-4.261,0-7.857-1.457-10.788-4.375
		c-2.932-2.916-4.397-6.445-4.397-10.586c0-2.76,0.667-5.318,2.003-7.676c1.335-2.356,3.156-4.202,5.462-5.537
		C167.839,69.645,170.334,68.977,173.018,68.977z M173.145,71.77c-2.126,0-4.141,0.554-6.045,1.662
		c-1.904,1.108-3.391,2.6-4.46,4.477c-1.069,1.876-1.604,3.967-1.604,6.273c0,3.415,1.184,6.298,3.55,8.65
		c2.367,2.352,5.22,3.527,8.559,3.527c2.23,0,4.294-0.54,6.191-1.622c1.898-1.081,3.377-2.56,4.441-4.437
		c1.063-1.877,1.594-3.962,1.594-6.256c0-2.279-0.531-4.342-1.594-6.186c-1.063-1.844-2.56-3.32-4.49-4.428
		S175.31,71.77,173.145,71.77z"/>
	<path fill="#DB2E27" d="M194.379,69.7h5.723c3.19,0,5.352,0.13,6.484,0.391c1.706,0.392,3.093,1.229,4.16,2.513
		s1.602,2.865,1.602,4.742c0,1.564-0.368,2.94-1.104,4.127s-1.787,2.082-3.154,2.688s-3.255,0.917-5.664,0.929l10.332,13.34h-3.552
		l-10.333-13.34h-1.623v13.34h-2.871V69.7z M197.25,72.512v9.765l4.949,0.04c1.917,0,3.335-0.183,4.255-0.547
		s1.637-0.947,2.152-1.748c0.515-0.801,0.772-1.696,0.772-2.687c0-0.963-0.261-1.838-0.782-2.626
		c-0.522-0.788-1.207-1.351-2.055-1.689c-0.848-0.338-2.256-0.508-4.226-0.508H197.25z"/>
	<path fill="#DB2E27" d="M229.274,69.7h5.723c3.281,0,5.495,0.144,6.641,0.43c1.641,0.404,2.981,1.234,4.023,2.49
		c1.042,1.257,1.563,2.835,1.563,4.736c0,1.914-0.508,3.494-1.523,4.736c-1.016,1.244-2.415,2.08-4.199,2.51
		c-1.302,0.313-3.737,0.469-7.305,0.469h-2.051V98.43h-2.871V69.7z M232.146,72.512v9.746l4.863,0.059
		c1.966,0,3.405-0.178,4.316-0.535s1.628-0.936,2.148-1.735c0.521-0.799,0.781-1.692,0.781-2.681c0-0.961-0.261-1.842-0.781-2.641
		c-0.521-0.799-1.208-1.368-2.061-1.706s-2.249-0.507-4.189-0.507H232.146z"/>
	<path fill="#DB2E27" d="M251.945,69.7h16.465v2.813h-13.594v9.003h13.477v2.813h-13.477v11.289h13.477v2.813h-16.348V69.7z"/>
	<path fill="#DB2E27" d="M271.319,72.512V69.7h15.742v2.813h-6.406V98.43h-2.93V72.512H271.319z"/>
	<path fill="#DB2E27" d="M288.354,93.078l2.441-1.465c1.719,3.164,3.704,4.746,5.957,4.746c0.964,0,1.868-0.225,2.715-0.674
		s1.491-1.051,1.934-1.807c0.442-0.754,0.664-1.555,0.664-2.402c0-0.963-0.325-1.906-0.977-2.832
		c-0.898-1.275-2.539-2.813-4.922-4.609c-2.396-1.809-3.887-3.117-4.473-3.926c-1.016-1.354-1.523-2.818-1.523-4.395
		c0-1.25,0.3-2.389,0.898-3.417c0.599-1.028,1.442-1.839,2.529-2.432c1.087-0.592,2.269-0.889,3.545-0.889
		c1.354,0,2.62,0.335,3.799,1.006c1.179,0.671,2.425,1.904,3.74,3.701l-2.344,1.777c-1.081-1.432-2.002-2.375-2.764-2.832
		c-0.762-0.456-1.592-0.684-2.49-0.684c-1.159,0-2.106,0.352-2.842,1.055s-1.104,1.569-1.104,2.597c0,0.625,0.13,1.23,0.391,1.816
		s0.735,1.225,1.426,1.914c0.378,0.365,1.614,1.322,3.711,2.871c2.487,1.836,4.192,3.471,5.117,4.902
		c0.925,1.434,1.387,2.871,1.387,4.316c0,2.084-0.791,3.895-2.373,5.43c-1.582,1.537-3.506,2.305-5.771,2.305
		c-1.745,0-3.327-0.465-4.746-1.396C290.86,96.826,289.552,95.266,288.354,93.078z"/>
</g>
<g>
	<defs>
		<rect id="SVGID_1_" x="6" y="6.875" width="348.965" height="128.357"/>
	</defs>
	<clipPath id="SVGID_2_">
		<use xlink:href="#SVGID_1_"  overflow="visible"/>
	</clipPath>
	<path clip-path="url(#SVGID_2_)" fill="#C1C0BE" d="M106.411,115.126c3.917,2.173,9.921-1.173,13.41-7.474
		c3.49-6.301,3.143-13.17-0.774-15.344c-3.916-2.172-9.92,1.174-13.41,7.475C102.147,106.084,102.494,112.953,106.411,115.126"/>
	<path clip-path="url(#SVGID_2_)" fill="#C1C0BE" d="M98.315,98.975c4.181,1.605,9.661-2.545,12.24-9.27
		c2.58-6.727,1.282-13.48-2.899-15.087c-4.181-1.606-9.661,2.544-12.241,9.271C92.836,90.613,94.134,97.368,98.315,98.975"/>
	<path clip-path="url(#SVGID_2_)" fill="#C1C0BE" d="M82.294,95.637c4.461,0.391,8.586-5.111,9.213-12.287
		c0.628-7.178-2.48-13.311-6.941-13.702s-8.586,5.11-9.214,12.287C74.725,89.111,77.833,95.246,82.294,95.637"/>
	<path clip-path="url(#SVGID_2_)" fill="#C1C0BE" d="M69.434,105.248c4.396-0.854,6.846-7.281,5.473-14.353
		c-1.374-7.071-6.05-12.11-10.446-11.256s-6.847,7.28-5.473,14.353C60.361,101.064,65.038,106.104,69.434,105.248"/>
	<path clip-path="url(#SVGID_2_)" fill="#C1C0BE" d="M63.376,114.571c6.082-8.078,8.724-5.41,13.77-11.458
		c7.386-10.464,18.028-8.633,20.263,2.83c2.234,11.463,7.181,9.659,9.95,17.281c1.438,3.962-3.83,19.752-17.61,7.322
		c-7.391-6.666-10.325-4.562-17.03-1.502C67.902,131.244,57.294,122.649,63.376,114.571"/>
	<path clip-path="url(#SVGID_2_)" fill="#C1C0BE" d="M60.687,44.952c4.432,0.633,8.819-4.601,9.799-11.69
		c0.98-7.089-1.818-13.349-6.25-13.982c-4.432-0.633-8.819,4.601-9.799,11.69C53.457,38.059,56.255,44.319,60.687,44.952"/>
	<path clip-path="url(#SVGID_2_)" fill="#C1C0BE" d="M47.325,32.81c4.474,0.013,8.083-5.782,8.062-12.944
		c-0.021-7.161-3.664-12.978-8.137-12.991c-4.474-0.013-8.084,5.783-8.063,12.944C39.208,26.98,42.851,32.796,47.325,32.81"/>
	<path clip-path="url(#SVGID_2_)" fill="#C1C0BE" d="M31.197,35.378c4.297-1.216,6.157-7.787,4.155-14.677
		S28.244,9.212,23.947,10.427c-4.296,1.216-6.157,7.787-4.155,14.677C21.794,31.994,26.9,36.594,31.197,35.378"/>
	<path clip-path="url(#SVGID_2_)" fill="#C1C0BE" d="M22.681,48.86c3.787-2.35,3.754-9.188-0.074-15.272
		c-3.828-6.085-10.001-9.112-13.788-6.762c-3.787,2.35-3.754,9.188,0.074,15.273C12.721,48.183,18.894,51.21,22.681,48.86"/>
	<path clip-path="url(#SVGID_2_)" fill="#C1C0BE" d="M20.397,59.666c2.755-9.658,6.177-8.113,8.698-15.519
		c3.11-12.336,13.684-14.4,19.897-4.541c6.212,9.859,10.171,6.433,15.497,12.536c2.768,3.171,3.551,19.707-13.766,13.035
		c-9.288-3.579-11.263-0.585-16.406,4.631C30.622,73.556,17.642,69.323,20.397,59.666"/>
</g>
</svg>
